# xmcd CD database file
#
# Track frame offsets:
#	150
#	26685
#	46493
#	64720
#	84820
#	103883
#	122358
#	138818
#	156068
#	180013
#	198383
#	206288
#
# Disc length: 3006 seconds
#
# Revision: 2
# Processed by: cddbd v1.5.2PL0 Copyright (c) Steve Scherf et al.
# Submitted via: CDex 1.70beta2
#
DISCID=8d0bbc0c
DTITLE=Motorhead - Hammered [Bonus Track]
DYEAR=2002
DGENRE=Rock
TTITLE0=Walk a Crooked Mile
TTITLE1=Down the Line
TTITLE2=Brave New World
TTITLE3=Voices from the War
TTITLE4=Mine All Mine
TTITLE5=Shut Your Mouth
TTITLE6=Kill the World
TTITLE7=Dr. Love
TTITLE8=No Remorse
TTITLE9=Red Raw
TTITLE10=Serial Killer
TTITLE11=God Save the Queen [Live][*]
EXTD=YEAR: 2002
EXTT0=
EXTT1=
EXTT2=
EXTT3=
EXTT4=
EXTT5=
EXTT6=
EXTT7=
EXTT8=
EXTT9=
EXTT10=
EXTT11=
PLAYORDER=
